<?xml version="1.0" encoding="utf-8"?>
<!-- Generator: Adobe Illustrator 25.2.1, SVG Export Plug-In . SVG Version: 6.00 Build 0)  -->
<svg version="1.1" xmlns="http://www.w3.org/2000/svg" xmlns:xlink="http://www.w3.org/1999/xlink" x="0px" y="0px"
	 viewBox="0 0 3000 3000" style="enable-background:new 0 0 3000 3000;" xml:space="preserve">
<style type="text/css">
	.st0{fill:#9A60FA;}
</style>


<g id="Capa_2">
</g>
<g id="Capa_3">
</g>
<g id="Capa_4">
	<path class="st0" d="M1655.95,2299.48h625.85c0,0-778.03-443.19-781.88-1682.97c-3.85,1239.78-781.88,1682.97-781.88,1682.97
		h625.85l65.9-355.39h180.25L1655.95,2299.48z M1421.31,1881.96l78.6-423.92l78.61,423.92H1421.31z"/>
</g>
<g id="Capa_1">
	<path class="st0" d="M39.87,535.42c0,0,811.61,658.64,84.99,1929.17h1041.07c0,0-675.63-599.15-169.97-1236.54
		c0,0,21.25,361.19,276.2,658.64v-854.1C1272.16,1032.58,919.47,631.02,39.87,535.42z"/>
	<path class="st0" d="M2960.13,535.42c0,0-811.61,658.64-84.99,1929.17H1834.07c0,0,675.63-599.15,169.97-1236.54
		c0,0-21.25,361.19-276.2,658.64v-854.1C1727.84,1032.58,2080.53,631.02,2960.13,535.42z"/>
</g>
</svg>
