<?xml version="1.0" encoding="utf-8"?>
<!-- Generator: Adobe Illustrator 25.2.1, SVG Export Plug-In . SVG Version: 6.00 Build 0)  -->
<svg version="1.1" id="Capa_1" xmlns="http://www.w3.org/2000/svg" xmlns:xlink="http://www.w3.org/1999/xlink" x="0px" y="0px"
	 viewBox="0 0 2963 2052" style="enable-background:new 0 0 2963 2052;" xml:space="preserve">
<style type="text/css">
	.st0{fill:#9A60FA;}
</style>
<path class="st0" d="M2954.66,58.3c-28.6,3.54-57.36,6.7-86,10.71c-71.98,10.09-143.59,22.34-214.71,37.48
	c-150.79,32.1-297.89,76.1-440.2,135.64c-114.91,48.08-224.92,105.37-327.96,175.61c-58.82,40.1-114.88,83.64-165.34,134.1
	c-5.69,5.69-7.91,11.44-7.9,19.49c0.21,200.1,0.17,400.19,0.17,600.29c0,3.57,0,7.13,0,12.27c-4.57-4.1-5.76-8.31-7.57-12.02
	c-57.47-117.69-102.63-240-137.13-366.29c-23.07-84.48-41.04-170.06-54.48-256.57c-8-51.54-14.36-103.3-19.11-155.27
	c-4.59-50.31-8.1-100.67-9.9-151.15c-0.62-17.49-1.61-34.97-2.43-52.45c-0.49,1.92-0.7,3.84-0.74,5.77
	c-1.39,70.05-5.63,139.93-12.4,209.68c-4.87,50.26-11.15,100.34-19.07,150.19c-13.9,87.46-32.36,173.95-56.06,259.31
	c-34.47,124.2-79.47,244.41-136.12,360.22c-1.22,2.49-1.89,5.55-5.54,7.51c0-5.51,0-10.18,0-14.85c0-198.41-0.05-396.82,0.17-595.24
	c0.01-8.71-2.33-15.02-8.53-21.23c-38.18-38.26-79.78-72.43-123.31-104.32c-113.05-82.8-235.68-148.45-364.51-202.91
	c-117.11-49.5-237.79-88.24-361.19-118.58c-82.71-20.33-166.2-36.72-250.41-49.53c-37.26-5.67-74.62-10.52-112-15.28
	c-7.64-0.97-15.35-1.45-25.18-2.36c3.32,3.04,4.77,4.4,6.24,5.72c22.13,19.77,43.02,40.8,62.84,62.86
	c106.17,118.19,185.22,252.66,240.23,401.45c33.74,91.25,56.56,185.22,69.24,281.7c5.93,45.1,9.94,90.35,11.32,135.79
	c2.1,69.08-0.16,138.02-7.4,206.8c-5.12,48.56-12.1,96.83-21.34,144.75c-21.91,113.62-54.51,224.18-95.59,332.32
	c-48.15,126.78-107.03,248.45-173.77,366.41c-1.91,3.38-4.66,6.49-5.03,11.26c349.82,0,699.09,0,1050.24,0
	c-54.37-51.48-102.17-106.3-147.11-166.48c5.5,0,8.76,0,12.01,0c100.72,0,201.44,0,302.17,0c2.36,0,4.73-0.18,7.07,0.03
	c4.41,0.41,7.15-0.9,7.34-5.82c0.06-1.65,0.78-3.27,1.09-4.92c20.93-112.8,41.84-225.6,62.75-338.4
	c1.87-10.08,1.86-10.11,11.87-10.12c40.76-0.01,81.52-0.01,122.28-0.01c13.47,0,26.95-0.03,40.42,0.01
	c8.9,0.03,8.99,0.07,10.76,9.11c2.33,11.89,4.52,23.8,6.73,35.71c18.89,101.89,37.77,203.77,56.66,305.66
	c1.6,8.63,1.63,8.63,9.96,8.74c2.02,0.03,4.04,0,6.06,0c100.05,0,200.1,0,300.14,0c3.58,0,7.16,0,13.13,0
	c-45.03,60.29-92.86,115.08-145.92,165.34c0.34,0.62,0.68,1.24,1.02,1.87c349.35,0,698.71,0,1049.42,0
	c-2.44-4.65-3.89-7.64-5.52-10.51c-53.24-93.76-101.47-190.01-143.24-289.44c-71.64-170.56-123.69-346.48-145.53-530.73
	c-6.11-51.54-9.72-103.23-10.91-155.08c-1.3-56.62,1.48-113.08,7.04-169.45c4.29-43.58,10.62-86.85,19.25-129.74
	c30.11-149.59,84.09-289.96,164.01-420.08c54.38-88.54,117.65-169.95,194.97-239.9C2953.42,62.23,2955.9,61.46,2954.66,58.3z
	 M1172.4,1331.08c-77.1,125.74-167.34,241.01-273.04,344.03c-1.2,1.17-2.46,2.27-3.58,3.31c-3.09-0.59-3.54-3.26-4.55-5.21
	c-44.47-85.23-77.63-174.48-95.14-269.22c-10.74-58.14-15.09-116.82-12.05-175.89c5.32-103.56,31.96-201.62,77.45-294.67
	c28.94-59.2,64.33-114.34,104.76-166.3c1.61-2.07,2.77-4.66,6.58-6.36c4.41,47.74,12.32,94.07,22.83,139.95
	c34.19,149.35,91.32,289.04,176.11,417.02C1174.86,1322.43,1175.67,1325.74,1172.4,1331.08z M1404.89,1418.49
	c-0.91-9.25,66.34-377.83,78.19-422.39c26.05,140.42,52.09,280.85,78.34,422.39C1508.4,1418.49,1456.63,1418.49,1404.89,1418.49z
	 M2138.76,1519.82c-17.12,52.23-38.87,102.51-64.17,151.27c-1.08,2.09-2.24,4.14-3.45,6.16c-0.29,0.49-0.91,0.79-1.95,1.65
	c-6.42-6.24-12.98-12.46-19.37-18.86c-98.94-99.12-184.1-209.04-257.34-328.33c-3.37-5.49-2.87-9.04,0.54-14.2
	c85.87-129.74,143.53-271.34,177.31-422.93c9.08-40.74,16.45-81.76,20.32-123.36c0.31-3.29,1.07-6.54,1.61-9.78
	c2.38,0.09,3.13,1.74,4.13,3.01c67.07,85.91,120.18,179.32,152.37,283.93c15.38,50,25.31,101.03,29.87,153.2
	C2188.13,1310.57,2172.68,1416.34,2138.76,1519.82z"/>
</svg>
